<svg width="18" height="18" viewBox="0 0 18 18" fill="none" xmlns="http://www.w3.org/2000/svg">
<path d="M9 1.5C4.8525 1.5 1.5 4.8525 1.5 9C1.5 13.1475 4.8525 16.5 9 16.5C13.1475 16.5 16.5 13.1475 16.5 9C16.5 4.8525 13.1475 1.5 9 1.5ZM12.225 12.225C12.1556 12.2945 12.0732 12.3497 11.9825 12.3873C11.8917 12.425 11.7945 12.4443 11.6962 12.4443C11.598 12.4443 11.5008 12.425 11.41 12.3873C11.3193 12.3497 11.2369 12.2945 11.1675 12.225L9 10.0575L6.8325 12.225C6.69227 12.3652 6.50207 12.444 6.30375 12.444C6.10543 12.444 5.91523 12.3652 5.775 12.225C5.63477 12.0848 5.55598 11.8946 5.55598 11.6962C5.55598 11.5981 5.57533 11.5008 5.6129 11.4101C5.65048 11.3194 5.70556 11.2369 5.775 11.1675L7.9425 9L5.775 6.8325C5.63477 6.69227 5.55598 6.50207 5.55598 6.30375C5.55598 6.10543 5.63477 5.91523 5.775 5.775C5.91523 5.63477 6.10543 5.55598 6.30375 5.55598C6.50207 5.55598 6.69227 5.63477 6.8325 5.775L9 7.9425L11.1675 5.775C11.2369 5.70556 11.3194 5.65048 11.4101 5.6129C11.5008 5.57533 11.5981 5.55598 11.6962 5.55598C11.7944 5.55598 11.8917 5.57533 11.9824 5.6129C12.0731 5.65048 12.1556 5.70556 12.225 5.775C12.2944 5.84444 12.3495 5.92687 12.3871 6.01759C12.4247 6.10832 12.444 6.20555 12.444 6.30375C12.444 6.40195 12.4247 6.49918 12.3871 6.58991C12.3495 6.68063 12.2944 6.76306 12.225 6.8325L10.0575 9L12.225 11.1675C12.51 11.4525 12.51 11.9325 12.225 12.225Z" fill="#00B374"/>
</svg>
