<svg width="22" height="22" viewBox="0 0 22 22" fill="none" xmlns="http://www.w3.org/2000/svg">
<path d="M4.70002 10.0999H14.753L10.361 5.70795C10.01 5.35695 10.01 4.78095 10.361 4.42995C10.4443 4.34651 10.5432 4.28032 10.6521 4.23516C10.7609 4.18999 10.8776 4.16675 10.9955 4.16675C11.1134 4.16675 11.2301 4.18999 11.339 4.23516C11.4479 4.28032 11.5468 4.34651 11.63 4.42995L17.561 10.3609C17.6445 10.4442 17.7106 10.5431 17.7558 10.652C17.801 10.7609 17.8242 10.8776 17.8242 10.9954C17.8242 11.1133 17.801 11.23 17.7558 11.3389C17.7106 11.4478 17.6445 11.5467 17.561 11.6299L11.63 17.5609C11.5467 17.6443 11.4478 17.7104 11.3389 17.7555C11.23 17.8006 11.1134 17.8238 10.9955 17.8238C10.8777 17.8238 10.761 17.8006 10.6521 17.7555C10.5433 17.7104 10.4443 17.6443 10.361 17.5609C10.2777 17.4776 10.2116 17.3787 10.1665 17.2698C10.1214 17.161 10.0982 17.0443 10.0982 16.9264C10.0982 16.8086 10.1214 16.6919 10.1665 16.5831C10.2116 16.4742 10.2777 16.3753 10.361 16.2919L14.753 11.8999H4.70002C4.20502 11.8999 3.80002 11.4949 3.80002 10.9999C3.80002 10.5049 4.20502 10.0999 4.70002 10.0999Z" fill="white"/>
</svg>
