<svg xmlns="http://www.w3.org/2000/svg" width="8" height="8" viewBox="0 0 8 8" fill="none">
  <path d="M0.584376 4.45203L5.62439 4.45203L3.42249 6.65393C3.24652 6.82991 3.24652 7.11868 3.42249 7.29465C3.46423 7.33648 3.51381 7.36967 3.5684 7.39231C3.62298 7.41495 3.6815 7.42661 3.74059 7.42661C3.79969 7.42661 3.8582 7.41495 3.91278 7.39231C3.96737 7.36967 4.01695 7.33648 4.05869 7.29465L7.03217 4.32118C7.074 4.27943 7.10718 4.22985 7.12983 4.17527C7.15247 4.12068 7.16412 4.06217 7.16412 4.00307C7.16412 3.94398 7.15247 3.88546 7.12983 3.83088C7.10718 3.7763 7.074 3.72671 7.03217 3.68497L4.05869 0.711495C4.01692 0.669721 3.96733 0.636585 3.91275 0.613977C3.85817 0.591369 3.79967 0.579733 3.74059 0.579733C3.68151 0.579733 3.62302 0.591369 3.56843 0.613977C3.51385 0.636585 3.46426 0.669721 3.42249 0.711495C3.38071 0.753269 3.34758 0.802862 3.32497 0.857442C3.30236 0.912022 3.29073 0.970522 3.29073 1.0296C3.29073 1.08868 3.30236 1.14717 3.32497 1.20175C3.34758 1.25633 3.38071 1.30593 3.42249 1.3477L5.62439 3.54961L0.584376 3.54961C0.33621 3.54961 0.133166 3.75265 0.133166 4.00082C0.133166 4.24898 0.33621 4.45203 0.584376 4.45203Z" fill="#ED5B1F"/>
</svg>