<svg xmlns="http://www.w3.org/2000/svg" width="18" height="18" viewBox="0 0 18 18" fill="none">
  <path d="M3.75033 9.75098L12.1278 9.75098L8.46783 13.411C8.17533 13.7035 8.17533 14.1835 8.46783 14.476C8.53722 14.5455 8.61963 14.6007 8.71036 14.6383C8.80109 14.6759 8.89836 14.6953 8.99658 14.6953C9.09481 14.6953 9.19207 14.6759 9.2828 14.6383C9.37353 14.6007 9.45595 14.5455 9.52533 14.476L14.4678 9.53348C14.5374 9.46409 14.5925 9.38168 14.6302 9.29095C14.6678 9.20022 14.6872 9.10296 14.6872 9.00473C14.6872 8.9065 14.6678 8.80924 14.6302 8.71851C14.5925 8.62778 14.5374 8.54536 14.4678 8.47598L9.52533 3.53348C9.45589 3.46404 9.37346 3.40896 9.28274 3.37139C9.19201 3.33381 9.09478 3.31447 8.99658 3.31447C8.89838 3.31447 8.80115 3.33381 8.71042 3.37139C8.6197 3.40896 8.53727 3.46404 8.46783 3.53348C8.39839 3.60292 8.34331 3.68535 8.30574 3.77607C8.26816 3.8668 8.24882 3.96403 8.24882 4.06223C8.24882 4.16043 8.26816 4.25766 8.30574 4.34839C8.34331 4.43911 8.39839 4.52154 8.46783 4.59098L12.1278 8.25098L3.75033 8.25098C3.33783 8.25098 3.00033 8.58848 3.00033 9.00098C3.00033 9.41348 3.33783 9.75098 3.75033 9.75098Z" fill="#ED5B1F"/>
</svg>