<svg xmlns="http://www.w3.org/2000/svg" width="18" height="18" viewBox="0 0 18 18" fill="none">
  <path d="M14.2497 9.75098L5.87217 9.75098L9.53217 13.411C9.82467 13.7035 9.82467 14.1835 9.53217 14.476C9.46278 14.5455 9.38037 14.6007 9.28964 14.6383C9.19891 14.6759 9.10164 14.6953 9.00342 14.6953C8.90519 14.6953 8.80793 14.6759 8.7172 14.6383C8.62647 14.6007 8.54405 14.5455 8.47467 14.476L3.53217 9.53348C3.46264 9.46409 3.40748 9.38168 3.36984 9.29095C3.33221 9.20022 3.31284 9.10296 3.31284 9.00473C3.31284 8.9065 3.33221 8.80924 3.36984 8.71851C3.40748 8.62778 3.46264 8.54536 3.53217 8.47598L8.47467 3.53348C8.54411 3.46404 8.62654 3.40896 8.71726 3.37139C8.80799 3.33381 8.90522 3.31447 9.00342 3.31447C9.10162 3.31447 9.19885 3.33381 9.28958 3.37139C9.3803 3.40896 9.46273 3.46404 9.53217 3.53348C9.60161 3.60292 9.65669 3.68535 9.69426 3.77607C9.73184 3.8668 9.75118 3.96403 9.75118 4.06223C9.75118 4.16043 9.73184 4.25766 9.69426 4.34839C9.65669 4.43911 9.60161 4.52154 9.53217 4.59098L5.87217 8.25098L14.2497 8.25098C14.6622 8.25098 14.9997 8.58848 14.9997 9.00098C14.9997 9.41348 14.6622 9.75098 14.2497 9.75098Z" fill="#ed5a25"/>
</svg>