<svg xmlns="http://www.w3.org/2000/svg" width="14" height="13" viewBox="0 0 14 13" fill="none">
  <path d="M7.06671 10.3626L7.00004 10.4293L6.92671 10.3626C3.76004 7.4893 1.66671 5.5893 1.66671 3.66264C1.66671 2.3293 2.66671 1.3293 4.00004 1.3293C5.02671 1.3293 6.02671 1.99597 6.38004 2.90264H7.62004C7.97337 1.99597 8.97337 1.3293 10 1.3293C11.3334 1.3293 12.3334 2.3293 12.3334 3.66264C12.3334 5.5893 10.24 7.4893 7.06671 10.3626ZM10 -0.00402832C8.84004 -0.00402832 7.72671 0.535972 7.00004 1.38264C6.27337 0.535972 5.16004 -0.00402832 4.00004 -0.00402832C1.94671 -0.00402832 0.333374 1.60264 0.333374 3.66264C0.333374 6.17597 2.60004 8.23597 6.03337 11.3493L7.00004 12.2293L7.96671 11.3493C11.4 8.23597 13.6667 6.17597 13.6667 3.66264C13.6667 1.60264 12.0534 -0.00402832 10 -0.00402832Z" fill="#323232"/>
</svg>