<svg width="20" height="18" viewBox="0 0 20 18" fill="none" xmlns="http://www.w3.org/2000/svg">
<path d="M17.5 2.75H14.9012L13.6234 0.83375C13.555 0.731142 13.4623 0.647003 13.3535 0.588786C13.2448 0.53057 13.1233 0.500074 13 0.5H7C6.87665 0.500074 6.75522 0.53057 6.64648 0.588786C6.53773 0.647003 6.44502 0.731142 6.37656 0.83375L5.09781 2.75H2.5C1.90326 2.75 1.33097 2.98705 0.90901 3.40901C0.487053 3.83097 0.25 4.40326 0.25 5V15.5C0.25 16.0967 0.487053 16.669 0.90901 17.091C1.33097 17.5129 1.90326 17.75 2.5 17.75H17.5C18.0967 17.75 18.669 17.5129 19.091 17.091C19.5129 16.669 19.75 16.0967 19.75 15.5V5C19.75 4.40326 19.5129 3.83097 19.091 3.40901C18.669 2.98705 18.0967 2.75 17.5 2.75ZM18.25 15.5C18.25 15.6989 18.171 15.8897 18.0303 16.0303C17.8897 16.171 17.6989 16.25 17.5 16.25H2.5C2.30109 16.25 2.11032 16.171 1.96967 16.0303C1.82902 15.8897 1.75 15.6989 1.75 15.5V5C1.75 4.80109 1.82902 4.61032 1.96967 4.46967C2.11032 4.32902 2.30109 4.25 2.5 4.25H5.5C5.62351 4.25008 5.74512 4.21966 5.85405 4.16143C5.96297 4.10321 6.05583 4.01899 6.12438 3.91625L7.40125 2H12.5978L13.8756 3.91625C13.9442 4.01899 14.037 4.10321 14.146 4.16143C14.2549 4.21966 14.3765 4.25008 14.5 4.25H17.5C17.6989 4.25 17.8897 4.32902 18.0303 4.46967C18.171 4.61032 18.25 4.80109 18.25 5V15.5ZM10 5.75C9.18415 5.75 8.38663 5.99193 7.70827 6.44519C7.02992 6.89845 6.50121 7.54269 6.189 8.29643C5.87679 9.05018 5.7951 9.87958 5.95426 10.6797C6.11343 11.4799 6.50629 12.2149 7.08318 12.7918C7.66008 13.3687 8.39508 13.7616 9.19525 13.9207C9.99542 14.0799 10.8248 13.9982 11.5786 13.686C12.3323 13.3738 12.9766 12.8451 13.4298 12.1667C13.8831 11.4884 14.125 10.6908 14.125 9.875C14.1238 8.78136 13.6888 7.73287 12.9154 6.95955C12.1421 6.18624 11.0936 5.75124 10 5.75ZM10 12.5C9.48082 12.5 8.97331 12.346 8.54163 12.0576C8.10995 11.7692 7.7735 11.3592 7.57482 10.8795C7.37614 10.3999 7.32415 9.87209 7.42544 9.36289C7.52672 8.85369 7.77673 8.38596 8.14384 8.01884C8.51096 7.65173 8.97869 7.40172 9.48789 7.30044C9.99709 7.19915 10.5249 7.25114 11.0045 7.44982C11.4842 7.6485 11.8942 7.98495 12.1826 8.41663C12.471 8.84831 12.625 9.35582 12.625 9.875C12.625 10.5712 12.3484 11.2389 11.8562 11.7312C11.3639 12.2234 10.6962 12.5 10 12.5Z" fill="white"/>
</svg>
