<svg width="12" height="12" viewBox="0 0 12 12" fill="none" xmlns="http://www.w3.org/2000/svg">
<g clip-path="url(#clip0_105_3131)">
<path d="M6.99809 6.00011L11.793 1.2052C12.069 0.929204 12.069 0.483108 11.793 0.207116C11.517 -0.0688759 11.0709 -0.0688759 10.7949 0.207116L6.00001 5.00203L1.20507 0.207116C0.929082 -0.0688759 0.482986 -0.0688759 0.206994 0.207116C-0.068998 0.483108 -0.068998 0.929204 0.206994 1.2052L5.00191 6.00011L0.206994 10.795C-0.068998 11.071 -0.068998 11.5171 0.206994 11.7931C0.344638 11.9307 0.525336 11.9999 0.706034 11.9999C0.886732 11.9999 1.06743 11.9307 1.20507 11.7931L5.99999 6.99819L10.7949 11.7931C10.9325 11.9307 11.1132 11.9999 11.2939 11.9999C11.4746 11.9999 11.6553 11.9307 11.793 11.7931C12.069 11.5171 12.069 11.071 11.793 10.795L6.99809 6.00011Z" fill="#44494D"/>
</g>
<defs>
<clipPath id="clip0_105_3131">
<rect width="12" height="12" fill="white"/>
</clipPath>
</defs>
</svg>
