<svg xmlns="http://www.w3.org/2000/svg" width="10" height="10" viewBox="0 0 10 10" fill="none">
  <g clip-path="url(#clip0_233_3704)">
    <path fill-rule="evenodd" clip-rule="evenodd" d="M7.48955 4.31548L7.63293 4.17301L7.63265 4.17219L7.631 4.17135L7.62689 4.16721L7.61275 4.15351L7.56005 4.10483C7.49673 4.04844 7.43137 3.99438 7.36411 3.94276C7.13961 3.77035 6.89784 3.62167 6.64268 3.49911C6.02976 3.20545 5.16272 2.98522 4.17805 3.30882C3.19421 3.63213 2.62673 4.32333 2.30807 4.92359C2.17553 5.17356 2.06929 5.43661 1.99105 5.70851C1.95945 5.8193 1.93338 5.9316 1.91291 6.04499L1.91207 6.05077L1.91165 6.05228L1.91178 6.05269C1.91178 6.05269 1.91151 6.05324 2.11153 6.08286L1.91137 6.05283C1.90692 6.084 1.90973 6.11579 1.91958 6.14571C1.92943 6.17563 1.94605 6.20287 1.96815 6.22532L1.96801 6.22629L1.96966 6.22712L1.97378 6.23127C1.99518 6.25287 2.01734 6.27372 2.0402 6.29379C2.3174 6.53614 2.62602 6.74002 2.95771 6.89991C3.57104 7.19343 4.43781 7.41284 5.42248 7.08924C6.40674 6.76579 6.97435 6.07501 7.29343 5.47461C7.42553 5.22454 7.53162 4.96157 7.61003 4.68983C7.63993 4.58537 7.66492 4.47956 7.68492 4.37275L7.68816 4.35335L7.68901 4.34757L7.68943 4.34606L7.68929 4.34565C7.68929 4.34565 7.68957 4.3451 7.48955 4.31548ZM7.48955 4.31548L7.68971 4.34551C7.69416 4.31433 7.69135 4.28255 7.6815 4.25263C7.67165 4.22271 7.65503 4.19547 7.63293 4.17301L7.48955 4.31548ZM4.56636 4.57201C4.39781 4.6274 4.25821 4.74746 4.17826 4.90578C4.09831 5.06411 4.08455 5.24772 4.14002 5.41623C4.1955 5.58475 4.31565 5.72436 4.47405 5.80435C4.63245 5.88434 4.81612 5.89816 4.98466 5.84277C5.1532 5.78739 5.2928 5.66733 5.37276 5.509C5.45271 5.35068 5.46646 5.16707 5.41099 4.99856C5.35552 4.83004 5.23537 4.69043 5.07697 4.61044C4.91857 4.53045 4.7349 4.51663 4.56636 4.57201ZM3.75691 5.54213C3.66793 5.27181 3.68999 4.97726 3.81825 4.72329C3.94651 4.46932 4.17045 4.27672 4.44082 4.18787C4.71119 4.09902 5.00583 4.12119 5.25993 4.24951C5.51403 4.37783 5.70677 4.60179 5.79576 4.87211C5.88474 5.14243 5.86268 5.43698 5.73442 5.69096C5.60616 5.94493 5.38222 6.13753 5.11185 6.22638C4.84148 6.31523 4.54684 6.29306 4.29274 6.16473C4.03864 6.03641 3.8459 5.81246 3.75691 5.54213Z" fill="#404040"/>
  </g>
  <defs>
    <clipPath id="clip0_233_3704">
      <rect width="6.96791" height="6.96791" fill="white" transform="matrix(0.950015 -0.312203 0.312673 0.949861 0.401505 2.97839)"/>
    </clipPath>
  </defs>
</svg>