<svg width="200" height="47" viewBox="0 0 200 47" fill="none" xmlns="http://www.w3.org/2000/svg">
<path d="M46.2629 23.5001C46.2629 26.5377 45.6645 29.5457 44.5021 32.3521C43.3396 35.1585 41.6358 37.7085 39.4878 39.8565C37.3399 42.0044 34.7899 43.7083 31.9834 44.8707C29.177 46.0332 26.1691 46.6315 23.1314 46.6315C20.0938 46.6315 17.0858 46.0332 14.2794 44.8707C11.473 43.7083 8.92299 42.0044 6.77504 39.8565C4.62709 37.7085 2.92324 35.1585 1.76077 32.3521C0.598312 29.5457 -2.65561e-07 26.5377 0 23.5001L23.1314 23.5001H46.2629Z" fill="#323232"/>
<path d="M-3.61248e-05 23.4999C-3.58592e-05 20.4623 0.598277 17.4543 1.76074 14.6479C2.9232 11.8415 4.62705 9.29148 6.775 7.14353C8.92295 4.99558 11.4729 3.29173 14.2794 2.12927C17.0858 0.966802 20.0937 0.36849 23.1314 0.36849C26.1691 0.36849 29.177 0.966803 31.9834 2.12927C34.7898 3.29173 37.3398 4.99558 39.4878 7.14353C41.6357 9.29148 43.3396 11.8415 44.502 14.6479C45.6645 17.4543 46.2628 20.4623 46.2628 23.4999L23.1314 23.4999L-3.61248e-05 23.4999Z" fill="#ED5A25"/>
<path d="M83.8306 34H79.2968L69.0311 18.4881V34H64.4973V11.3636H69.0311L79.2968 26.9079V11.3636H83.8306V34ZM87.1451 24.9649C87.1451 23.1514 87.5014 21.543 88.2138 20.1396C88.9479 18.7363 89.9302 17.6569 91.1608 16.9012C92.4129 16.1456 93.8055 15.7678 95.3383 15.7678C96.6768 15.7678 97.8427 16.0377 98.8358 16.5774C99.8505 17.1171 100.66 17.7972 101.265 18.6176V16.0593H105.831V34H101.265V31.3769C100.682 32.2189 99.8721 32.9205 98.8358 33.4819C97.8211 34.0216 96.6444 34.2915 95.3059 34.2915C93.7947 34.2915 92.4129 33.9028 91.1608 33.1256C89.9302 32.3484 88.9479 31.2582 88.2138 29.8548C87.5014 28.43 87.1451 26.8 87.1451 24.9649ZM101.265 25.0296C101.265 23.9286 101.049 22.9894 100.617 22.2122C100.185 21.4134 99.6022 20.8089 98.8682 20.3987C98.1341 19.9669 97.3461 19.751 96.5041 19.751C95.6621 19.751 94.8849 19.9561 94.1725 20.3663C93.46 20.7765 92.8771 21.381 92.4237 22.1798C91.9919 22.9571 91.7761 23.8854 91.7761 24.9649C91.7761 26.0443 91.9919 26.9943 92.4237 27.8147C92.8771 28.6135 93.46 29.2288 94.1725 29.6605C94.9065 30.0923 95.6837 30.3082 96.5041 30.3082C97.3461 30.3082 98.1341 30.1031 98.8682 29.6929C99.6022 29.2611 100.185 28.6566 100.617 27.8794C101.049 27.0806 101.265 26.1307 101.265 25.0296ZM114.792 18.65C115.375 17.8296 116.174 17.1495 117.189 16.6098C118.225 16.0485 119.402 15.7678 120.719 15.7678C122.252 15.7678 123.633 16.1456 124.864 16.9012C126.116 17.6569 127.098 18.7363 127.811 20.1396C128.545 21.5214 128.912 23.1298 128.912 24.9649C128.912 26.8 128.545 28.43 127.811 29.8548C127.098 31.2582 126.116 32.3484 124.864 33.1256C123.633 33.9028 122.252 34.2915 120.719 34.2915C119.402 34.2915 118.236 34.0216 117.221 33.4819C116.228 32.9421 115.419 32.2621 114.792 31.4417V42.5494H110.259V16.0593H114.792V18.65ZM124.281 24.9649C124.281 23.8854 124.054 22.9571 123.601 22.1798C123.169 21.381 122.586 20.7765 121.852 20.3663C121.14 19.9561 120.363 19.751 119.521 19.751C118.7 19.751 117.923 19.9669 117.189 20.3987C116.476 20.8089 115.894 21.4134 115.44 22.2122C115.008 23.011 114.792 23.9502 114.792 25.0296C114.792 26.1091 115.008 27.0482 115.44 27.847C115.894 28.6458 116.476 29.2611 117.189 29.6929C117.923 30.1031 118.7 30.3082 119.521 30.3082C120.363 30.3082 121.14 30.0923 121.852 29.6605C122.586 29.2288 123.169 28.6135 123.601 27.8147C124.054 27.0159 124.281 26.0659 124.281 24.9649Z" fill="#404040"/>
<path d="M147.589 11.396V15.0554H141.565V34H137.032V15.0554H131.008V11.396H147.589ZM153.196 13.9219C152.397 13.9219 151.728 13.6736 151.188 13.1771C150.67 12.6589 150.411 12.0221 150.411 11.2664C150.411 10.5108 150.67 9.88471 151.188 9.38816C151.728 8.87002 152.397 8.61094 153.196 8.61094C153.995 8.61094 154.653 8.87002 155.172 9.38816C155.711 9.88471 155.981 10.5108 155.981 11.2664C155.981 12.0221 155.711 12.6589 155.172 13.1771C154.653 13.6736 153.995 13.9219 153.196 13.9219ZM155.431 16.0593V34H150.897V16.0593H155.431ZM176.588 24.641C176.588 25.2887 176.545 25.8716 176.458 26.3898H163.343C163.451 27.6851 163.904 28.6998 164.703 29.4339C165.502 30.1679 166.484 30.5349 167.65 30.5349C169.334 30.5349 170.532 29.8117 171.244 28.3652H176.134C175.616 30.0923 174.623 31.5172 173.155 32.6399C171.687 33.7409 169.884 34.2915 167.747 34.2915C166.02 34.2915 164.465 33.9136 163.084 33.158C161.723 32.3808 160.655 31.2905 159.878 29.8872C159.122 28.4839 158.744 26.8647 158.744 25.0296C158.744 23.1729 159.122 21.543 159.878 20.1396C160.633 18.7363 161.691 17.6569 163.051 16.9012C164.411 16.1456 165.977 15.7678 167.747 15.7678C169.452 15.7678 170.974 16.1348 172.313 16.8689C173.673 17.6029 174.72 18.65 175.454 20.0101C176.21 21.3487 176.588 22.8923 176.588 24.641ZM171.892 23.3457C171.87 22.1798 171.449 21.2515 170.629 20.5606C169.809 19.8482 168.805 19.492 167.617 19.492C166.495 19.492 165.545 19.8374 164.768 20.5283C164.012 21.1975 163.548 22.1367 163.375 23.3457H171.892ZM189.839 15.8002C191.976 15.8002 193.703 16.4803 195.02 17.8404C196.337 19.1789 196.996 21.0572 196.996 23.4752V34H192.462V24.0905C192.462 22.6656 192.106 21.5753 191.393 20.8197C190.681 20.0425 189.709 19.6539 188.479 19.6539C187.227 19.6539 186.233 20.0425 185.499 20.8197C184.787 21.5753 184.431 22.6656 184.431 24.0905V34H179.897V16.0593H184.431V18.2938C185.035 17.5165 185.802 16.912 186.73 16.4803C187.68 16.0269 188.716 15.8002 189.839 15.8002Z" fill="#ED5A25"/>
</svg>
