<svg width="16" height="14" viewBox="0 0 16 14" fill="none" xmlns="http://www.w3.org/2000/svg">
<path d="M14.4 0.5C14.8037 0.499869 15.1925 0.655787 15.4884 0.936498C15.7844 1.21721 15.9657 1.60196 15.996 2.01364L16 2.13636V11.9545C16.0001 12.3674 15.8477 12.765 15.5732 13.0677C15.2987 13.3704 14.9225 13.5559 14.52 13.5868L14.4 13.5909H1.6C1.19634 13.591 0.807547 13.4351 0.511562 13.1544C0.215577 12.8737 0.0342747 12.4889 0.00400017 12.0773L8.02144e-08 11.9545V2.13636C-0.000127663 1.72353 0.152325 1.3259 0.426798 1.02319C0.70127 0.720476 1.07748 0.535054 1.48 0.504091L1.6 0.5H14.4ZM14.4 3.29327L8.848 8.97145C8.623 9.20128 8.318 9.33037 8 9.33037C7.682 9.33037 7.377 9.20128 7.152 8.97145L1.6 3.29327V11.9545H14.4V3.29327ZM13.2688 2.13636H2.7312L8 7.52491L13.2688 2.13636Z" fill="#323232"/>
</svg>
