<svg width="17" height="17" viewBox="0 0 17 17" fill="none" xmlns="http://www.w3.org/2000/svg">
<path fill-rule="evenodd" clip-rule="evenodd" d="M12.7057 11.3957C13.7983 9.98707 14.3132 8.21513 14.1457 6.44034C13.9782 4.66556 13.1409 3.02124 11.8041 1.84191C10.4672 0.662588 8.73134 0.0368432 6.94952 0.0919802C5.1677 0.147117 3.47381 0.878995 2.21245 2.13872C0.95 3.39932 0.21573 5.09386 0.159275 6.87704C0.102821 8.66021 0.728431 10.3978 1.90862 11.7357C3.0888 13.0737 4.73474 13.9112 6.51102 14.0778C8.2873 14.2443 10.0602 13.7272 11.4685 12.632L11.5062 12.6714L15.223 16.3891C15.3044 16.4705 15.4011 16.5351 15.5074 16.5791C15.6138 16.6232 15.7278 16.6459 15.8429 16.6459C15.958 16.6459 16.072 16.6232 16.1784 16.5791C16.2848 16.5351 16.3814 16.4705 16.4628 16.3891C16.5442 16.3077 16.6088 16.211 16.6529 16.1047C16.6969 15.9983 16.7196 15.8843 16.7196 15.7692C16.7196 15.654 16.6969 15.54 16.6529 15.4337C16.6088 15.3273 16.5442 15.2307 16.4628 15.1493L12.7451 11.4325L12.7057 11.3957ZM10.8867 3.37853C11.3814 3.86523 11.7749 4.44507 12.0444 5.08459C12.3138 5.72411 12.454 6.41066 12.4569 7.10463C12.4597 7.79861 12.3251 8.48627 12.0608 9.12797C11.7966 9.76966 11.4079 10.3527 10.9171 10.8434C10.4264 11.3341 9.8434 11.7228 9.2017 11.9871C8.56001 12.2514 7.87234 12.386 7.17837 12.3831C6.48439 12.3803 5.79785 12.2401 5.15833 11.9706C4.51881 11.7011 3.93897 11.3077 3.45226 10.813C2.47962 9.82439 1.93703 8.49149 1.94268 7.10463C1.94832 5.71778 2.50175 4.38934 3.48241 3.40868C4.46307 2.42802 5.79151 1.87459 7.17837 1.86894C8.56522 1.86329 9.89812 2.40589 10.8867 3.37853Z" fill="#5C5C5C"/>
</svg>
