<svg xmlns="http://www.w3.org/2000/svg" width="10" height="10" viewBox="0 0 10 10" fill="none">
  <g clip-path="url(#clip0_233_3700)">
    <path d="M5.69747 6.71748L7.06996 7.0335C7.32134 7.09147 7.51612 6.81965 7.38289 6.60061L6.65102 5.39867L7.37459 4.18906C7.50674 3.96838 7.30759 3.69766 7.05851 3.75812L5.6891 4.08286L4.76293 3.02422C4.59562 2.83166 4.27567 2.93681 4.25543 3.191L4.13809 4.5895L2.84312 5.14037C2.60675 5.23944 2.60731 5.57542 2.84476 5.67464L4.14569 6.21894L4.27076 7.62029C4.29367 7.87559 4.61191 7.97881 4.77977 7.78307L5.69747 6.71748Z" fill="#DC4D1A"/>
  </g>
  <defs>
    <clipPath id="clip0_233_3700">
      <rect width="6.96791" height="6.96791" fill="white" transform="matrix(0.950015 -0.312203 0.312673 0.949861 0.819962 3.04248)"/>
    </clipPath>
  </defs>
</svg>