<svg width="15" height="14" viewBox="0 0 15 14" fill="none" xmlns="http://www.w3.org/2000/svg">
<path fill-rule="evenodd" clip-rule="evenodd" d="M7.46282 0.333252C11.1448 0.333252 14.1295 3.31792 14.1295 6.99992C14.1318 8.53851 13.5997 10.0301 12.6241 11.2199L12.6375 11.2346L12.5495 11.3093C11.9242 12.0487 11.1451 12.6427 10.2666 13.0499C9.388 13.457 8.43114 13.6675 7.46282 13.6666C5.49615 13.6666 3.72948 12.8153 2.50948 11.4619L2.37615 11.3086L2.28815 11.2353L2.30148 11.2193C1.32609 10.0297 0.794008 8.53828 0.796149 6.99992C0.796149 3.31792 3.78082 0.333252 7.46282 0.333252ZM7.46282 10.3333C6.22282 10.3333 5.10215 10.7279 4.26748 11.2706C5.18921 11.9619 6.31066 12.3348 7.46282 12.3333C8.61497 12.3348 9.73642 11.9619 10.6581 11.2706C9.70435 10.6595 8.59556 10.3343 7.46282 10.3333ZM7.46282 1.66659C6.45917 1.66656 5.47587 1.94973 4.62596 2.48355C3.77605 3.01738 3.09402 3.78018 2.65826 4.6843C2.22249 5.58842 2.05069 6.59714 2.16258 7.59454C2.27448 8.59193 2.66554 9.53751 3.29082 10.3226C4.37148 9.54725 5.84615 8.99992 7.46282 8.99992C9.07948 8.99992 10.5541 9.54725 11.6348 10.3226C12.2601 9.53751 12.6512 8.59193 12.763 7.59454C12.8749 6.59714 12.7031 5.58842 12.2674 4.6843C11.8316 3.78018 11.1496 3.01738 10.2997 2.48355C9.44976 1.94973 8.46647 1.66656 7.46282 1.66659ZM7.46282 2.99992C8.17006 2.99992 8.84834 3.28087 9.34843 3.78097C9.84853 4.28106 10.1295 4.95934 10.1295 5.66659C10.1295 6.37383 9.84853 7.05211 9.34843 7.5522C8.84834 8.0523 8.17006 8.33325 7.46282 8.33325C6.75557 8.33325 6.07729 8.0523 5.5772 7.5522C5.0771 7.05211 4.79615 6.37383 4.79615 5.66659C4.79615 4.95934 5.0771 4.28106 5.5772 3.78097C6.07729 3.28087 6.75557 2.99992 7.46282 2.99992ZM7.46282 4.33325C7.10919 4.33325 6.77006 4.47373 6.52001 4.72378C6.26996 4.97382 6.12948 5.31296 6.12948 5.66659C6.12948 6.02021 6.26996 6.35935 6.52001 6.60939C6.77006 6.85944 7.10919 6.99992 7.46282 6.99992C7.81644 6.99992 8.15558 6.85944 8.40562 6.60939C8.65567 6.35935 8.79615 6.02021 8.79615 5.66659C8.79615 5.31296 8.65567 4.97382 8.40562 4.72378C8.15558 4.47373 7.81644 4.33325 7.46282 4.33325Z" fill="white"/>
</svg>
