<svg width="24" height="24" viewBox="0 0 24 24" fill="none" xmlns="http://www.w3.org/2000/svg">
<path d="M12.479 14.265V10.986H23.528C23.636 11.557 23.692 12.233 23.692 12.965C23.692 15.425 23.02 18.467 20.852 20.634C18.744 22.829 16.051 24 12.483 24C5.86898 24 0.307983 18.613 0.307983 12C0.307983 5.387 5.86898 0 12.483 0C16.142 0 18.748 1.436 20.706 3.307L18.392 5.62C16.988 4.303 15.085 3.279 12.479 3.279C7.64998 3.279 3.87298 7.171 3.87298 12C3.87298 16.829 7.64998 20.721 12.479 20.721C15.611 20.721 17.395 19.463 18.538 18.32C19.465 17.393 20.075 16.069 20.315 14.261L12.479 14.265Z" fill="#5C5C5C"/>
</svg>
